<svg xmlns:svg="http://www.w3.org/2000/svg" xmlns="http://www.w3.org/2000/svg" version="1.0" width="400" height="160">
    <title>SVG Grundelemente</title>
    <defs>
        <linearGradient id="svg_2" x1="0" y1="0" x2="1" y2="1">
            <stop offset="0" stop-color="#00bf00" />
            <stop offset="1" stop-color="#ffff00" />
        </linearGradient>
    </defs>

    <!-- Obere Reihe -->

    <rect x="20" y="20" width="60" height="40" stroke="#204a87" stroke-width="2" fill="none" />
    <circle cx="120" cy="40" r="20" stroke="#4e9a06" stroke-width="2" fill="none" />
    <ellipse cx="190" cy="40" rx="30" ry="20" stroke="#4e9a06" stroke-width="2" fill="none" />
    <polygon fill="none" fill-opacity="0.59" stroke="#c4a000" stroke-width="2"
        points="240,30 240,46 252,62 270,62 282,46 282,30 270,18 252,18" />
    <path stroke-width="2" stroke="#a40000" fill-opacity="0.62" fill="none"
        d="m305,60c24.08109,12 27.64865,-16 33,-28c11.5946,-28 46.37839,3 46.37839,3" />

    <!-- Texte -->

    <text x="20" y="83">Reckteck</text>
    <text x="100" y="83">Kreis</text>
    <text x="160" y="83">Ellipse</text>
    <text x="240" y="83">Polygon</text>
    <text x="305" y="83">Pfad</text>

    <!-- Untere Reihe -->

    <rect x="20" y="100" width="60" height="40" stroke="#204a87" stroke-width="2" fill="#00bfbf" />
    <circle cx="120" cy="120" r="20" stroke="#4e9a06" stroke-width="2" fill="#73d216" />
    <ellipse cx="190" cy="120" rx="30" ry="20" stroke="#4e9a06" stroke-width="2" fill="url(#svg_2)" />
    <polygon fill="#edd400" fill-opacity="0.59" stroke="#c4a000" stroke-width="2"
        points="240,112 240,128 252,140 270,140 282,128 282,112 270,100 252,100" />
    <path stroke-width="2" stroke="#a40000" fill-opacity="0.62" fill="#ef2929"
        d="m305,134c24.08109,12 27.64865,-16 33,-28c11.5946,-28 46.37839,3 46.37839,3" />
</svg>